<svg aria-hidden="true" style="width:0;height:0;position:absolute;overflow:hidden" xmlns="http://www.w3.org/2000/svg"><defs><symbol id="search-icon" viewBox="0 0 32 32"><path d="m31.008 27.231-7.58-6.447c-.784-.705-1.622-1.029-2.299-.998a11.954 11.954 0 0 0 2.87-7.787c0-6.627-5.373-12-12-12s-12 5.373-12 12 5.373 12 12 12c2.972 0 5.691-1.081 7.787-2.87-.031.677.293 1.515.998 2.299l6.447 7.58c1.104 1.226 2.907 1.33 4.007.23s.997-2.903-.23-4.007zM12 20a8 8 0 1 1 0-16 8 8 0 0 1 0 16z"/></symbol><symbol id="dropdown-country-search" viewBox="0 0 13 8"><path d="M6.5 8 .005.5h12.99L6.5 8Z" fill="#939393"/></symbol><symbol id="research-icon"><path d="M1.509 1.509A5.118 5.118 0 0 1 5.152 0c1.376 0 2.67.536 3.643 1.509a5.118 5.118 0 0 1 1.51 3.643 5.114 5.114 0 0 1-1.27 3.386l2.862 2.861a.352.352 0 0 1-.498.498L8.538 9.036a5.114 5.114 0 0 1-3.386 1.268A5.118 5.118 0 0 1 1.51 8.795 5.118 5.118 0 0 1 0 5.152c0-1.376.536-2.67 1.509-3.643zm.498 6.789a4.453 4.453 0 0 0 6.29 0 4.453 4.453 0 0 0 0-6.291A4.434 4.434 0 0 0 5.153.706a4.435 4.435 0 0 0-3.145 1.3 4.453 4.453 0 0 0 0 6.292z" fill="#939393"/></symbol><symbol id="delete-search" viewBox="0 0 25 25"><path d="M1.286 25a1.286 1.286 0 0 1-.909-2.196L22.804.377a1.286 1.286 0 1 1 1.82 1.819L2.195 24.623a1.29 1.29 0 0 1-.91.377z" fill="#939393"/><path d="M23.715 25c-.33 0-.659-.125-.91-.377L.378 2.196A1.286 1.286 0 0 1 2.196.376l22.427 22.428A1.286 1.286 0 0 1 23.715 25z" fill="#939393"/></symbol></defs></svg>